<?xml version="1.0" encoding="utf-8"?>
<!-- Generator: Adobe Illustrator 21.0.2, SVG Export Plug-In . SVG Version: 6.00 Build 0)  -->
<svg version="1.1" id="Layer_1" xmlns="http://www.w3.org/2000/svg" xmlns:xlink="http://www.w3.org/1999/xlink" x="0px" y="0px"
	 viewBox="0 0 1510 1080" style="enable-background:new 0 0 1510 1080;" xml:space="preserve">
<style type="text/css">
	.st0{fill:#006868;}
	.st1{fill:none;stroke:#002D32;stroke-width:2;stroke-miterlimit:10;}
	.st2{fill:#FFFFFF;stroke:#002D32;stroke-width:2;stroke-miterlimit:10;}
	.st3{stroke:#000000;stroke-width:4;stroke-miterlimit:10;}
	.st4{fill:none;stroke:#000000;stroke-width:4;stroke-miterlimit:10;}
	.st5{fill:#FFFFFF;stroke:#000000;stroke-width:4;stroke-miterlimit:10;}
	.st6{fill:#FFFFFF;}
	.st7{fill:none;stroke:#FFFFFF;stroke-width:5;stroke-miterlimit:10;}
</style>
<g>
	<path class="st0" d="M594.9,725.5c0-28.4-28-43.5-36-107.9c-2.8-46.4-1.3-111.4,0-178.9c0.7-35.1,35-58.4,35-96.4
		c0-206-207.1-196.6-207.1-196.6s-214.2-21.3-210.6,196.6l3.9,374.6C181.5,814.5,300.6,892,427,892C427,892,595.6,899.7,594.9,725.5
		"/>
	<line class="st1" x1="179.2" y1="465" x2="592.2" y2="716.8"/>
	<line class="st1" x1="204.1" y1="790.1" x2="500.1" y2="660.7"/>
	<circle class="st2" cx="386.6" cy="359.4" r="153.6"/>
	<circle class="st3" cx="314.9" cy="359.4" r="17.2"/>
	<circle class="st3" cx="459.8" cy="359.4" r="17.2"/>
	<path class="st4" d="M332.1,431.1c0,0,51.7,47.4,110.5,0"/>
	<path class="st5" d="M180.1,716.9"/>
</g>
<g>
	<path class="st6" d="M669.3,265.6l10.3,25.7l72.8,186.5h0.2l61.2-157.6l21.4-54.5l0.2-0.2H861l0.3,0.2h0.2L765.6,509l-1.5,2.9
		h-23.7c-0.3,0-5.3-12.5-15-37.5L643,265.7l0.2-0.2H669.3z"/>
	<path class="st6" d="M897.5,318.3h1.1c3.3,0,6.3,1.4,9.3,4.2c2.3,2.7,3.4,5.6,3.4,8.6v0.7c0,3.8-1.6,7.1-4.8,9.9
		c-2.6,2-5.2,3-8.1,3h-0.8c-3.9,0-7.2-1.7-10-5.2c-1.9-2.5-2.8-5-2.8-7.5V331c0-3.3,1.4-6.4,4.2-9.3
		C891.8,319.4,894.6,318.3,897.5,318.3z M888.9,386.2h18.2l0.1,0.1v125.3l-0.1,0.1h-18.2l-0.1-0.1V386.4L888.9,386.2z"/>
	<path class="st6" d="M949.5,318.3h17.7l0.4,0.4v127.7l62.8-60.3h26.3v0.3l-56,54.1l56.4,71.2l-0.1,0.1H1033
		c-0.9-0.9-14.2-17.8-39.9-50.9l-6.1-7.4c-12.8,12.3-19.3,18.5-19.4,18.5v39.4l-0.4,0.4h-17.7l-0.4-0.4V318.7L949.5,318.3z"/>
	<path class="st6" d="M1082.6,318.3h18.2l0.1,0.1v193.3l-0.1,0.1h-18.2l-0.1-0.1V318.4L1082.6,318.3z"/>
	<path class="st6" d="M1190.2,385.1c18.2,0,33.7,8,46.7,24.1c8.5,12.6,12.8,24.9,12.8,36.9v1.6c0,4.1-0.3,6.1-0.8,6.1h-100.3
		c0,4.2,1.8,10.2,5.3,17.8c5.3,9.9,12.9,16.7,22.9,20.6c4.8,1.6,9.2,2.4,13.1,2.4c12.1,0,22.5-5.2,31.3-15.7
		c3.1-4.2,5.1-7.6,6.1-10.2h0.3c7.1,2.8,12.7,5.2,16.8,7.1c-1.9,5.6-6.3,12-13,19.4c-12.2,11.9-26,17.8-41.4,17.8
		c-18.4,0-34.1-8.1-47.2-24.2c-8.5-12.2-12.8-25.2-12.8-39v-1.2c0-17.6,6.3-33,18.9-46.3C1160.6,390.8,1174.4,385.1,1190.2,385.1z
		 M1150.4,435.4h79c-3.7-11.5-10-20-18.8-25.5c-6.4-4.1-13.4-6.2-21-6.2c-12.9,0-23.8,6-32.9,18
		C1153.9,425.8,1151.8,430.4,1150.4,435.4z"/>
</g>
<g>
	<path class="st6" d="M666.7,555.9h28.9c0.9,0.9,30.9,49.8,90,146.7l38,62.4h0.3V556.4l0.3-0.5h22.7l0.5,0.5v245.2l-0.5,0.5h-27.8
		c-1.6-1.8-5.8-8.5-12.6-20.2c-0.4-0.6-30.4-49.6-90-147.2L691,593.1v208.6l-0.5,0.5h-23.7l-0.5-0.5V556.4L666.7,555.9z"/>
	<path class="st6" d="M974.5,681.2l10.2-17.7l0.1-0.1l15.9,9.1v0.3l-10.8,18.8c13.7,13.5,20.6,29.5,20.6,48
		c0,18.9-7.3,35.2-21.8,48.9c-12,10-25.1,14.9-39.3,14.9c-7.7,0-14.9-1.4-21.8-4.2l-9.1,15.7h-0.1l-15.9-9.1v-0.1l9.3-16
		c-1.2-1-2.5-2-3.7-3.2c-13-13.5-19.6-28.9-19.6-46.3v-1.6c0-17.3,6.5-32.6,19.4-46c12.4-11.3,25.7-16.9,39.8-16.9h3.4
		C959.1,675.7,966.9,677.5,974.5,681.2z M965.1,697.3c-4.8-2.1-9.7-3.2-14.9-3.2h-2c-10.5,0-20.3,4.5-29.3,13.6
		c-7.9,9.3-11.9,19.8-11.9,31.6v0.7c0,12.4,4.7,23.4,14,33.1c0.1,0.1,0.2,0.1,0.3,0.1L965.1,697.3z M980.1,708.3l-43.2,74.6
		c4,1.3,8.1,2,12.4,2c13.3,0,24.7-6.1,34.1-18.2c5.6-8.6,8.5-17.7,8.5-27.2C991.9,727.6,988,717.2,980.1,708.3z"/>
	<path class="st6" d="M1095.3,675.7c9.4,0,17.6,2.1,24.6,6.2l-4.1,19.7h-0.1c-7.8-4.6-15.1-6.9-21.7-6.9c-14.7,0-25,6.8-30.9,20.4
		c-1.3,3.3-2,6.6-2,10v76.7l-0.4,0.4h-17.7l-0.4-0.4V678.6l0.4-0.4h17.7l0.4,0.4v10.7h0.1c3.9-5.4,9.6-9.2,17.1-11.4
		C1084,676.4,1089.7,675.7,1095.3,675.7z"/>
	<path class="st6" d="M1242,608.6h17.8l0.4,0.4v192.9l-0.4,0.3H1242l-0.3-0.3v-20.5h-0.1c-9.5,14.6-23.9,21.9-43.1,21.9v-0.1
		l-0.3,0.1c-17.1,0-32.1-6.9-44.9-20.6c-10.8-12.9-16.1-27.1-16.1-42.6v-1.6c0-16.6,5.9-31.4,17.8-44.4
		c12.5-12.6,27.4-18.9,44.7-18.9c17.4,0,31.2,7.1,41.5,21.4l0.4,0.8h0.1V609L1242,608.6z M1155.7,738.8v0.7
		c0,14.7,5.9,26.9,17.7,36.6c7.4,5.7,15.6,8.6,24.7,8.6c19.1,0,32.3-9.4,39.7-28.2c1.9-5.5,2.9-10.9,2.9-16.4v-2.9
		c0-7.7-2.4-15.7-7.3-24.1c-8.3-12.8-19.3-19.2-33.2-19.2c-18.7,0-32.3,8.8-40.7,26.4C1157,726.7,1155.7,732.9,1155.7,738.8z"/>
</g>
<rect x="0" y="1.2" class="st7" width="1510" height="1076.5"/>
</svg>
